<svg width="913" height="731" viewBox="0 0 913 731" fill="none" xmlns="http://www.w3.org/2000/svg">
<path d="M26.8493 141.003C32.9434 145.419 34.3256 153.892 29.9204 159.873C25.5984 165.741 16.9067 167.015 10.8847 162.663C4.98063 158.4 3.62057 149.571 7.96158 143.711C12.4828 137.612 20.5709 136.456 26.8493 141.003Z" fill="#CF9133"/>
<rect x="686" width="227" height="227" fill="white"/>
<rect x="686" width="227" height="227" fill="#F7B192"/>
<path d="M458 0H686V227H577.5C511.502 227 458 173.498 458 107.5V0Z" fill="#81341D"/>
<path d="M230 0H458V227H349.5C283.502 227 230 173.498 230 107.5V0Z" fill="#AB972F"/>
<path d="M685 680L458 680L458 452L565.5 452C631.498 452 685 505.502 685 571.5L685 680Z" fill="white"/>
<path d="M685 680L458 680L458 452L565.5 452C631.498 452 685 505.502 685 571.5L685 680Z" fill="#F8EFCC"/>
<path d="M685 680L685 453L913 453L913 560.5C913 626.498 859.498 680 793.5 680L685 680Z" fill="#CF9133"/>
<path d="M913 453V227H687C687 351.816 788.184 453 913 453Z" fill="#FFC710"/>
<path d="M686 453V227L460 227C460 351.816 561.184 453 686 453Z" fill="white"/>
<path d="M686 453V227L460 227C460 351.816 561.184 453 686 453Z" fill="#F7B192"/>
<path d="M244 272.32C244 256.244 246.709 230.088 250.743 214.836C270.786 139.004 345.323 92.4367 425.67 88.8812C522.702 84.5914 602.265 143.708 622.847 235.864C625.416 247.365 625.672 259.358 627 271.123L626.167 271.683C621.322 275.972 615.492 275.28 609.706 274.784C605.966 275.08 602.226 275.312 598.498 274.784C594.812 275.006 591.132 275.576 587.442 274.926C583.163 274.631 578.868 275.571 574.6 274.779C570.311 275.148 566.021 275.518 561.732 274.779C558.03 274.509 554.35 275.724 550.643 274.921C546.288 274.493 541.961 275.877 537.622 274.921C532.62 274.646 527.601 275.867 522.609 274.773C515.135 274.504 507.536 276.554 500.203 273.653C497.95 272.681 496.447 270.959 495.25 268.946C494.43 267.428 493.765 265.835 493.263 264.191C489.229 252.115 480.623 244.993 467.749 243.725C455.109 242.478 446.062 248.829 439.284 258.676C438.092 260.409 437.363 262.374 436.519 264.287C434.886 267.065 434.657 270.552 431.919 272.739C429.894 274.139 427.564 274.472 425.164 274.625C421.533 275.376 417.891 274.974 414.244 274.757C409.889 275.492 405.534 275.09 401.212 274.794C394.876 275.914 388.48 273.738 382.16 275.185C375.083 276.242 368.006 274.007 360.897 275.064C354.479 276.179 348.078 274.393 341.66 274.963C337.185 275.914 332.754 274.62 328.29 274.763C323.19 275.914 318.056 274.541 312.945 274.99C308.977 275.888 305.024 274.293 301.056 274.99C286.206 276.231 271.34 275.587 256.484 275.36C252.565 275.286 246.607 275.796 244 272.32Z" fill="#FFC710"/>
<path d="M609.034 272.231H626C624.912 329.85 601.106 376.776 556.046 413.787C514.327 448.063 465.376 460.114 412.394 454.759C362.154 449.685 320.337 426.745 287.857 388.821C259.018 355.161 244.326 316.188 244 272.183C244.635 271.895 245.339 271.781 246.035 271.854L302.239 272.104C309.367 280.088 315.646 288.629 320.359 298.215C319.194 302.742 314.993 304.534 311.772 307.201C299.48 317.354 289.473 329.044 285.561 344.658C280.979 362.949 290.121 374.915 309.296 376.113C314.281 376.426 319.374 375.827 324.151 377.863C330.061 381.145 332.999 386.971 336.634 392.109C371.148 440.943 446.315 449.611 494.977 408.947C502.682 402.505 506.878 393.095 515.263 387.358C518.092 386.584 520.078 388.249 522.032 389.755C526.483 393.19 530.684 392.936 534.373 388.827C538.53 384.225 543.694 382.687 549.794 382.889C556.41 383.101 559.98 380.095 559.305 373.287C558.864 368.898 559.468 364.418 563.038 361.698C570.656 355.908 571.102 349.239 567.059 341.482C568.24 337.177 571.608 334.399 574.71 331.552C590.033 317.492 600.284 300.627 604.942 280.57C605.638 277.485 606.34 274.41 609.034 272.231Z" fill="#AB972F"/>
<path d="M493.561 128.612C511.777 128.822 526.346 143.231 525.994 160.714C525.647 177.865 510.245 192.122 492.262 191.938C474.636 191.764 459.613 176.639 460.008 159.477C460.424 141.61 474.798 128.401 493.561 128.612Z" fill="#8A2E19"/>
<path d="M289 215.154C289.076 196.81 303.095 183.107 321.695 183.171C339.656 183.23 354.054 197.815 354 215.887C353.946 233.958 339.769 247.566 320.898 247.475C301.708 247.394 288.919 234.429 289 215.154Z" fill="#8A2E19"/>
<path d="M433.677 263.246C439.329 248.348 452.094 239.756 467.105 240.73C482.366 241.74 494.619 252.019 498.5 268C499.28 271.212 501.044 281.932 497 282C482.331 282.286 453.173 280.786 438.5 280.5C432.406 280.411 430.947 271.765 433.677 263.246Z" fill="#8A2E19"/>
<path d="M550.257 272.327H561.69C564.63 277.316 562.033 281.779 559.643 285.784C553.801 295.558 547.257 304.878 535.775 309.42C531.936 309.91 527.161 308.366 524.466 311.528C516.174 321.159 504.986 320.427 493.896 320.548C471.813 318.288 454.815 308.119 443.071 289.857C440.229 285.441 432.287 281.085 433 275.5C435.934 268.44 447.633 270.762 452.5 272C455.592 274.055 455.621 277.938 457.559 280.831C478.433 311.981 520.465 312.445 542.025 281.716C544.42 278.291 546.086 274.281 550.257 272.327Z" fill="#D68D28"/>
<path d="M402.288 272.807L414.496 272.902C418.293 275.101 418.771 279.126 420.095 282.645C429.898 308.783 448.225 326.397 475.531 335.172C480.132 336.651 485.692 337.066 487 343.127C486.656 346.881 484.836 350.362 481.916 352.85C474.424 355.207 467.762 352.029 461.246 349.409C448.284 344.205 436.499 336.589 426.556 326.991C420.737 320.31 415.321 313.308 410.334 306.02C406.43 298.777 403.348 291.144 401.144 283.256C400.113 279.647 398.746 275.964 402.288 272.807Z" fill="#020100"/>
<path d="M550 272.383C541.416 293.784 524.211 306.509 501.944 306.896C476.962 307.335 459.496 292.814 449.5 271.5C461.5 270.5 463 271.5 465 272C468.517 273.409 468.58 276.843 470.925 279.387C486.74 296.541 512.966 296.717 528.655 279.625C531.284 276.76 533.771 273.911 537.495 272.315L550 272.383Z" fill="#020100"/>
<path d="M486.673 342.958C484.609 339.279 480.558 339.978 477.274 338.979C443.086 328.59 421.352 307.102 414 272.807L426.5 272.5C428.335 274.166 429.253 276.181 430.217 278.514C441.653 306.209 462.287 322.883 493.121 327.318C498.311 335.863 496.672 339.826 486.673 342.958Z" fill="#D58D28"/>
<path d="M570 200.283C569.084 201.775 568.355 202.966 567.631 204.141C558.563 218.43 549.236 232.634 540.529 247.156C536.691 253.575 533.209 251.469 528.362 248.664C523.598 245.901 521.114 243.636 524.711 238.106C533.955 223.891 542.728 209.396 551.753 195.06C553.447 192.371 555.223 189.344 559.38 191.98C563.163 194.377 568.075 195.499 570 200.283Z" fill="#F5E1B1"/>
<path d="M407.164 159.432C388.294 156.82 371.265 154.373 354.215 152.15C348.251 151.372 347.108 147.859 348.579 143.195C349.83 139.186 348.3 133.114 357.096 134.719C373.638 137.731 390.409 139.645 407.148 141.441C412.959 142.07 416.299 143.627 414.522 149.688C413.21 154.16 414.342 161.484 407.164 159.432Z" fill="#F5E2B1"/>
<path d="M436 201.269C434.646 203.381 433.621 205.272 432.322 206.965C422.285 220.033 411.95 232.908 402.227 246.192C398.213 251.657 395.13 251.41 389.922 247.67C384.713 243.93 383.199 241.168 387.527 235.735C397.795 222.838 407.513 209.544 417.627 196.54C419.675 193.912 421.878 189.92 426.365 193.139C429.751 195.546 434.056 197.11 436 201.269Z" fill="#F5E1B1"/>
<path d="M492.827 329.317C461.723 328.876 435.008 306.316 426 272.5L436 271.5C440.547 271 439.333 271.924 440.547 276.395C449.958 301.216 468.628 314.597 495.011 318.43C496.868 322.555 496.094 326.175 492.827 329.317Z" fill="#020100"/>
<path d="M538 272.353C530.551 287.734 517.981 296.19 500.536 296.19C484.177 296.222 471.955 286.683 464.5 272C473.5 271 472.5 271.728 477 272C479.137 272.129 479.467 272.118 481.156 273.394C495.421 285.022 509.174 281.851 522.769 272.231L538 272.353Z" fill="#D58D27"/>
<path d="M609 271.908C606.555 301.703 590.446 323.753 567.641 341.983C559.625 340.972 558.747 336.356 561.224 329.974C577.049 316.494 587.892 299.89 593.573 280.071C594.452 277.006 595.527 274.031 598.059 271.833L609 271.908Z" fill="#D68E28"/>
<path d="M598 271.876C594.899 296.526 583.154 316.262 562.915 331.266C559.11 327.933 559.187 323.431 559 319C559.423 315.335 561.672 312.618 564.053 310.003C571.697 301.655 577.376 291.778 580.691 281.066C581.857 277.315 583.132 273.751 587.02 271.833L598 271.876Z" fill="#020201"/>
<path d="M535.421 308.175C548.788 299.145 557.699 287.04 562.327 271.935L575.136 271.833C575.888 272.614 576.762 273.448 576.891 274.477C578.695 289.554 557.804 316.074 542.233 318.6C537.075 316.893 533.789 314.028 535.421 308.175Z" fill="#030201"/>
<path d="M543 316.577C560.727 306.631 570.358 291.25 574.156 271.912L587 271.833C582.477 289.408 574.393 305.074 561.216 317.985C554.968 320.011 548.592 323.177 543 316.577Z" fill="#D48D28"/>
<path d="M402.137 272.807C403.31 284.489 409.026 294.79 414 305.314C412.246 306.162 410.332 306.162 408.843 305.172C400.887 299.849 392.167 295.958 382.976 292.809C381.601 292.346 380.356 291.607 379.331 290.646C378.307 289.684 377.53 288.525 377.056 287.252C376.785 285.632 377.51 284.423 378.921 283.519C381.416 282.133 384.504 282.889 387.193 281.909C387.619 277.475 381.184 277.043 381.516 272.975L402.137 272.807Z" fill="#D58E29"/>
<path d="M523 272.005C513.189 287.349 489.006 287.369 477 272.039C484.28 270.301 491.587 270.719 498.911 271.774L523 272.005Z" fill="#020200"/>
<path d="M318.587 297.691C311.082 290.268 304.375 282.369 302 271.833L312.908 271.876C320.473 276.914 325.723 283.695 329 291.996C326.966 296.402 324.074 299.296 318.587 297.691Z" fill="#040301"/>
<path d="M381.736 272.102C383.899 273.048 386.121 273.951 388.278 274.951C390.072 275.709 391.512 277.111 392.313 278.877C393.115 280.643 393.219 282.644 392.604 284.482C391.182 288.584 387.424 285.02 384.688 284.848C383.309 284.762 381.941 284.541 380.568 284.385C367.851 283.95 363.325 281.047 361 271.833L381.736 272.102Z" fill="#080501"/>
<path d="M360.438 271.91C364.764 279.726 373.414 280.6 380 284.826L377.486 286.756C369.078 290.329 360.638 286.955 352.198 286.922C346.899 283.122 340.368 280.257 341.049 271.833L360.438 271.91Z" fill="#D28E2C"/>
<path d="M328.162 292.317C321.072 287.03 317.341 279.213 313 271.833H328.233C333.234 276.561 340.482 279.65 339.975 288.408C337.013 292.815 333.201 294.498 328.162 292.317Z" fill="#D28B28"/>
<path d="M339.148 286.5C335.731 281.426 329.198 278.447 328 271.88L341.294 271.833L353 283.961C349.143 288.49 344.644 289.925 339.148 286.5Z" fill="#050402"/>
<path d="M339.236 286.5L352.774 283.915C361.294 283.265 369.771 283.122 377.998 285.951C389.424 293.352 403.913 295.456 413.652 305.793L427.472 323.754C434.986 333.436 439.524 344.359 441.657 356.294C442.397 359.741 441.559 363.194 441.657 366.641C442.304 370.643 441.896 374.633 441.564 378.63C441.798 382.663 440.476 386.387 439.187 390.112C437.01 396.314 433.969 402.015 428.789 406.39C411.536 416.604 392.803 413.14 377.198 396.442C371.436 390.272 365.816 383.905 360.875 377.074C357.224 372.044 353.127 370.046 347.349 373.562C342.798 375.753 338.11 377.658 333.311 379.264C330.357 380.228 327.375 380.745 324.345 379.573C319.328 379.637 314.306 379.924 309.3 379.727C288.249 378.907 277.362 364.893 282.096 344.902C287.107 323.685 301.933 309.736 318.806 297.332C321.961 295.325 325.126 293.318 328.3 291.311L339.236 286.5Z" fill="#F8EFCA"/>
<path d="M542.629 316.972C548.606 320.035 555.31 314.205 561.205 318.385C564.172 322.136 564.483 326.347 563.467 330.781C560.336 336.13 563.958 338.881 567.876 341.521C577.388 350.023 577.481 353.24 567.515 361.181C563.144 364.662 561.505 368.059 562.811 373.752C564.805 382.492 560.396 386.571 550.901 385.82C546.202 385.45 541.831 384.682 538.018 388.788C528.183 399.412 524.905 399.153 516.163 387.825C512.301 388.111 508.514 389.359 504.559 388.64C499.204 388.487 494.358 387.259 491.107 382.672C487.463 377.598 491.107 371.562 488.791 366.308C485.983 361.44 477.864 359.372 480.53 351.621C480.732 347.595 482.491 344.574 486.474 342.976C491.211 339.452 496.063 335.982 492.326 329.12C491.43 325.199 492.512 321.649 494.511 318.284C497.5 317.11 500.521 315.332 503.799 316.697C510.853 319.596 515.606 316.464 519.392 311.216C523.763 305.169 529.101 304.677 535.39 307.904C537.061 311.48 538.302 315.38 542.629 316.972Z" fill="#F5B094"/>
<path d="M505.693 385.224C509.788 384.239 513.845 383.475 517 387.39C478.108 453.676 378.262 455.842 332.054 391.359C329.145 387.304 326.674 382.934 324 378.71L333.7 375.11C338.96 375.846 341.53 379.902 344.203 383.676C361.968 408.718 386.715 422.163 417.072 423.993C446.849 425.785 473.187 416.413 493.937 394.337C497.447 390.579 501.029 387.314 505.693 385.224Z" fill="#010100"/>
<path d="M480.659 352.242C481.39 359.075 489.316 359.914 492 365.128C486.851 384.944 458.12 405.981 434.539 407.165C431.708 407.308 428.746 407.696 427 404.669L436.033 390.832C438.935 386.797 443.763 386.016 447.936 384.115C456.756 380.101 464.955 375.349 469.259 366.02C462.8 368.001 458.982 373.905 453.058 376.597C448.459 378.684 444.439 383.5 438.466 379.857L438.864 367.289C440.659 362.702 445.917 361.013 448.623 357.036C444.848 354.488 441.477 358.778 438.199 356.638C434.489 345.905 430.78 335.175 427.071 324.446C442.552 338.044 459.724 348.615 480.659 352.242Z" fill="#D68E28"/>
<path d="M505 385.831C460.248 443.348 379.382 441.319 337.511 381.704C336.106 379.706 334.498 377.836 333 375.907L345.149 371.212C350.179 372.442 352.64 376.511 355.417 380.125C388.387 422.927 449.258 420.575 483.359 388.311C486.12 385.699 488.05 381.9 492.654 381.672C496.05 385.015 500.21 386.298 505 385.831Z" fill="#D68D27"/>
<path d="M382.798 304.96C400.212 305.039 420.494 328.385 417.749 345.202C416.035 355.7 407.437 361.384 396.923 358.97C381.02 355.296 366.415 336.473 367.018 320.402C367.403 310.314 372.914 304.918 382.798 304.96Z" fill="#FFC710"/>
<path d="M492.428 381.703C458.227 428.537 386.183 427.231 351.217 379.119C349.35 376.55 347.732 373.805 346 371.14C352.742 364.852 357.552 364.339 362.932 373.66C368.962 384.12 377.024 393.306 386.656 400.695C399.234 410.327 412.713 413.484 427.132 404.242C456.447 403.172 476.343 387.279 491.82 364.392C495.349 370.048 489.556 376.031 492.428 381.703Z" fill="#020101"/>
<path d="M367 295.216C356.073 305.758 353.245 317.353 353.322 330.095C353.35 334.393 356.562 340.746 349.753 342.582C343.29 344.319 335.998 345.101 330.117 340.37C325.121 336.349 322.979 331.159 324.462 324.764C328.228 308.772 346.058 295.696 367 295.216Z" fill="#FFC710"/>
<path d="M439.399 378.672C448.687 375.674 457.195 371.264 463.114 363.401C467.073 358.151 471.135 358.777 477 362.031C467.869 377.601 454.563 386.566 437 389.724C437.805 386.042 438.605 382.358 439.399 378.672Z" fill="#050301"/>
<path d="M439 355.63C440.968 354.262 442.867 352.782 444.914 351.554C448.336 349.497 451.314 351.81 453.096 353.856C455.715 356.858 451.991 358.702 450.171 360.069C446.924 362.516 443.179 364.284 439.645 366.341C439.43 362.772 439.215 359.202 439 355.63Z" fill="#0F0B05"/>
<path d="M529.328 342.733C521.281 345.572 512.89 344.236 511.087 353.184C509.482 361.07 513.528 368.251 521.389 370.522C530.443 373.147 539.46 369.694 542.606 362.403C548.949 347.701 537.329 331.874 520.829 333.162C514.308 333.666 507.878 335.256 501 336.417C508.209 327.873 529.568 326.902 538.805 334.257C548.991 342.38 551.167 360.202 543.046 368.992C537.532 374.963 526.281 376.922 518.051 373.262C509.822 369.603 506.029 363.461 506.821 354.786C507.77 344.26 515.357 339.557 529.328 342.733Z" fill="#110C0A"/>
<path d="M672.8 465.871C671.712 467.249 670.845 468.349 669.985 469.433C659.266 482.593 648.302 495.639 637.915 509.071C633.334 515.01 630.128 512.522 625.65 509.185C621.249 505.9 619.054 503.368 623.289 498.284C634.173 485.218 644.622 471.82 655.303 458.608C657.308 456.131 659.435 453.326 663.247 456.416C666.717 459.228 671.462 460.901 672.8 465.871Z" fill="#F5E1B1"/>
<path d="M925.724 116.152C924.562 114.833 923.635 113.781 922.721 112.739C911.693 99.8244 900.829 86.6984 889.46 74.0441C884.43 68.4602 887.585 65.9121 891.854 62.3243C896.055 58.7991 899.048 57.2233 903.289 62.3021C914.189 75.3554 925.512 88.0621 936.601 100.951C938.679 103.37 941.062 105.972 937.177 108.976C933.643 111.71 930.991 115.893 925.724 116.152Z" fill="#81341D"/>
<circle cx="728.5" cy="42.5" r="26.5" fill="white"/>
<circle cx="728.5" cy="42.5" r="26.5" fill="#F8EFCC"/>
<circle cx="415.5" cy="42.5" r="26.5" fill="#FFC710"/>
<ellipse cx="239.895" cy="455.875" rx="129.895" ry="126.558" fill="#F9F0C8"/>
<mask id="mask0" mask-type="alpha" maskUnits="userSpaceOnUse" x="110" y="329" width="260" height="254">
<path fill-rule="evenodd" clip-rule="evenodd" d="M110.478 455.752C110.478 525.548 168.551 582.127 240.185 582.127C311.821 582.127 369.891 525.548 369.891 455.752C369.891 385.955 311.821 329.374 240.185 329.374C168.551 329.374 110.478 385.955 110.478 455.752Z" fill="white"/>
</mask>
<g mask="url(#mask0)">
<path d="M111.514 451.583L115.905 453.974L115.905 453.974L111.514 451.583ZM132.963 451.581L128.571 449.19L128.571 449.19L132.963 451.581ZM154.414 451.581L158.806 453.972L158.806 453.972L154.414 451.581ZM132.963 451.581L128.571 449.19L128.571 449.19L132.963 451.581ZM154.414 451.581L158.806 453.972L158.806 453.972L154.414 451.581ZM175.861 451.581L171.47 449.19L171.47 449.19L175.861 451.581ZM154.414 451.581L158.806 453.972L158.806 453.972L154.414 451.581ZM175.861 451.581L171.47 449.19L171.47 449.19L175.861 451.581ZM197.311 451.581L192.92 449.19L192.92 449.19L197.311 451.581ZM175.861 451.581L171.47 449.19L171.47 449.19L175.861 451.581ZM197.311 451.581L192.92 449.19L192.92 449.19L197.311 451.581ZM218.76 451.581L214.368 449.19L214.368 449.19L218.76 451.581ZM197.311 451.581L192.92 449.19L192.92 449.19L197.311 451.581ZM218.76 451.581L214.368 449.19L214.368 449.19L218.76 451.581ZM240.21 451.581L244.601 453.972L244.601 453.972L240.21 451.581ZM218.76 451.581L214.368 449.19L214.368 449.19L218.76 451.581ZM240.21 451.581L244.601 453.972L244.601 453.972L240.21 451.581ZM261.656 451.581L257.265 449.19L257.265 449.19L261.656 451.581ZM240.21 451.581L244.601 453.972L244.601 453.972L240.21 451.581ZM261.656 451.581L257.265 449.19L257.265 449.19L261.656 451.581ZM283.107 451.581L278.715 449.19V449.19L283.107 451.581ZM261.656 451.581L257.265 449.19L257.265 449.19L261.656 451.581ZM283.107 451.581L278.715 449.19V449.19L283.107 451.581ZM304.553 451.581L308.945 453.972L308.945 453.972L304.553 451.581ZM283.107 451.581L278.715 449.19V449.19L283.107 451.581ZM304.553 451.581L308.945 453.972L308.945 453.972L304.553 451.581ZM326 451.581L330.391 453.972L330.391 453.972L326 451.581ZM304.553 451.581L308.945 453.972L308.945 453.972L304.553 451.581ZM326 451.581L330.391 453.972L330.391 453.972L326 451.581ZM347.449 451.581L343.057 449.19L343.057 449.19L347.449 451.581ZM326 451.581L330.391 453.972L330.391 453.972L326 451.581ZM347.449 451.581L343.057 449.19L343.057 449.19L347.449 451.581ZM368.895 451.583L364.504 449.192L364.504 449.192L368.895 451.583ZM107.82 282.07C134.193 310.898 142.189 336.906 139.865 363.152C137.501 389.855 124.436 417.395 107.123 449.192L115.905 453.974C133.165 422.274 147.256 393.057 149.826 364.034C152.436 334.553 143.143 305.865 115.198 275.32L107.82 282.07ZM107.123 449.192C89.7977 481.01 75.7071 510.229 73.1545 539.225C70.5613 568.68 79.8898 597.305 107.82 627.844L115.199 621.096C88.8302 592.263 80.8084 566.313 83.1159 540.102C85.4639 513.431 98.525 485.893 115.905 453.974L107.123 449.192ZM129.269 282.072C155.642 310.898 163.637 336.906 161.314 363.152C158.949 389.854 145.884 417.394 128.571 449.19L137.354 453.972C154.613 422.274 168.705 393.057 171.275 364.034C173.885 334.553 164.591 305.866 136.647 275.322L129.269 282.072ZM128.571 449.19C111.246 481.009 97.156 510.229 94.6033 539.225C92.0102 568.68 101.338 597.305 129.266 627.844L136.646 621.096C110.279 592.263 102.257 566.313 104.565 540.102C106.913 513.431 119.974 485.892 137.354 453.972L128.571 449.19ZM150.717 282.072C177.09 310.898 185.086 336.906 182.763 363.151C180.399 389.854 167.335 417.393 150.023 449.19L158.806 453.972C176.064 422.273 190.155 393.056 192.724 364.033C195.334 334.552 186.04 305.866 158.095 275.322L150.717 282.072ZM150.023 449.19C132.699 481.009 118.608 510.229 116.055 539.224C113.461 568.679 122.788 597.304 150.716 627.843L158.096 621.094C131.729 592.262 123.708 566.313 126.016 540.102C128.365 513.431 141.426 485.892 158.806 453.972L150.023 449.19ZM129.269 282.072C155.642 310.898 163.637 336.906 161.314 363.152C158.949 389.854 145.884 417.394 128.571 449.19L137.354 453.972C154.613 422.274 168.705 393.057 171.275 364.034C173.885 334.553 164.591 305.866 136.647 275.322L129.269 282.072ZM128.571 449.19C111.246 481.009 97.156 510.229 94.6033 539.225C92.0102 568.68 101.338 597.305 129.266 627.844L136.646 621.096C110.279 592.263 102.257 566.313 104.565 540.102C106.913 513.431 119.974 485.892 137.354 453.972L128.571 449.19ZM150.717 282.072C177.09 310.898 185.086 336.906 182.763 363.151C180.399 389.854 167.335 417.393 150.023 449.19L158.806 453.972C176.064 422.273 190.155 393.056 192.724 364.033C195.334 334.552 186.04 305.866 158.095 275.322L150.717 282.072ZM150.023 449.19C132.699 481.009 118.608 510.229 116.055 539.224C113.461 568.679 122.788 597.304 150.716 627.843L158.096 621.094C131.729 592.262 123.708 566.313 126.016 540.102C128.365 513.431 141.426 485.892 158.806 453.972L150.023 449.19ZM172.165 282.072C198.539 310.899 206.535 336.907 204.211 363.152C201.847 389.854 188.783 417.393 171.47 449.19L180.252 453.972C197.512 422.273 211.603 393.056 214.172 364.033C216.782 334.553 207.488 305.867 179.544 275.322L172.165 282.072ZM171.47 449.19C154.146 481.008 140.056 510.228 137.503 539.224C134.909 568.679 144.237 597.304 172.165 627.843L179.544 621.094C153.177 592.262 145.157 566.312 147.464 540.101C149.813 513.43 162.874 485.891 180.252 453.972L171.47 449.19ZM150.717 282.072C177.09 310.898 185.086 336.906 182.763 363.151C180.399 389.854 167.335 417.393 150.023 449.19L158.806 453.972C176.064 422.273 190.155 393.056 192.724 364.033C195.334 334.552 186.04 305.866 158.095 275.322L150.717 282.072ZM150.023 449.19C132.699 481.009 118.608 510.229 116.055 539.224C113.461 568.679 122.788 597.304 150.716 627.843L158.096 621.094C131.729 592.262 123.708 566.313 126.016 540.102C128.365 513.431 141.426 485.892 158.806 453.972L150.023 449.19ZM172.165 282.072C198.539 310.899 206.535 336.907 204.211 363.152C201.847 389.854 188.783 417.393 171.47 449.19L180.252 453.972C197.512 422.273 211.603 393.056 214.172 364.033C216.782 334.553 207.488 305.867 179.544 275.322L172.165 282.072ZM171.47 449.19C154.146 481.008 140.056 510.228 137.503 539.224C134.909 568.679 144.237 597.304 172.165 627.843L179.544 621.094C153.177 592.262 145.157 566.312 147.464 540.101C149.813 513.43 162.874 485.891 180.252 453.972L171.47 449.19ZM193.614 282.072C219.987 310.899 227.983 336.907 225.66 363.152C223.296 389.854 210.232 417.393 192.92 449.19L201.702 453.972C218.961 422.273 233.052 393.056 235.621 364.033C238.23 334.553 228.937 305.867 200.992 275.322L193.614 282.072ZM192.92 449.19C175.596 481.008 161.505 510.228 158.952 539.224C156.357 568.679 165.684 597.304 193.613 627.843L200.993 621.094C174.625 592.262 166.605 566.312 168.913 540.101C171.262 513.43 184.324 485.891 201.702 453.972L192.92 449.19ZM172.165 282.072C198.539 310.899 206.535 336.907 204.211 363.152C201.847 389.854 188.783 417.393 171.47 449.19L180.252 453.972C197.512 422.273 211.603 393.056 214.172 364.033C216.782 334.553 207.488 305.867 179.544 275.322L172.165 282.072ZM171.47 449.19C154.146 481.008 140.056 510.228 137.503 539.224C134.909 568.679 144.237 597.304 172.165 627.843L179.544 621.094C153.177 592.262 145.157 566.312 147.464 540.101C149.813 513.43 162.874 485.891 180.252 453.972L171.47 449.19ZM193.614 282.072C219.987 310.899 227.983 336.907 225.66 363.152C223.296 389.854 210.232 417.393 192.92 449.19L201.702 453.972C218.961 422.273 233.052 393.056 235.621 364.033C238.23 334.553 228.937 305.867 200.992 275.322L193.614 282.072ZM192.92 449.19C175.596 481.008 161.505 510.228 158.952 539.224C156.357 568.679 165.684 597.304 193.613 627.843L200.993 621.094C174.625 592.262 166.605 566.312 168.913 540.101C171.262 513.43 184.324 485.891 201.702 453.972L192.92 449.19ZM215.064 282.072C241.436 310.899 249.432 336.907 247.109 363.152C244.745 389.854 231.681 417.393 214.368 449.19L223.151 453.972C240.411 422.273 254.501 393.056 257.07 364.033C259.68 334.553 250.386 305.867 222.442 275.322L215.064 282.072ZM214.368 449.19C197.045 481.008 182.955 510.228 180.402 539.223C177.808 568.678 187.135 597.303 215.063 627.843L222.443 621.094C196.076 592.262 188.055 566.312 190.363 540.1C192.711 513.43 205.772 485.891 223.151 453.972L214.368 449.19ZM193.614 282.072C219.987 310.899 227.983 336.907 225.66 363.152C223.296 389.854 210.232 417.393 192.92 449.19L201.702 453.972C218.961 422.273 233.052 393.056 235.621 364.033C238.23 334.553 228.937 305.867 200.992 275.322L193.614 282.072ZM192.92 449.19C175.596 481.008 161.505 510.228 158.952 539.224C156.357 568.679 165.684 597.304 193.613 627.843L200.993 621.094C174.625 592.262 166.605 566.312 168.913 540.101C171.262 513.43 184.324 485.891 201.702 453.972L192.92 449.19ZM215.064 282.072C241.436 310.899 249.432 336.907 247.109 363.152C244.745 389.854 231.681 417.393 214.368 449.19L223.151 453.972C240.411 422.273 254.501 393.056 257.07 364.033C259.68 334.553 250.386 305.867 222.442 275.322L215.064 282.072ZM214.368 449.19C197.045 481.008 182.955 510.228 180.402 539.223C177.808 568.678 187.135 597.303 215.063 627.843L222.443 621.094C196.076 592.262 188.055 566.312 190.363 540.1C192.711 513.43 205.772 485.891 223.151 453.972L214.368 449.19ZM236.512 282.072C262.885 310.899 270.881 336.907 268.558 363.152C266.194 389.854 253.13 417.393 235.818 449.19L244.601 453.972C261.86 422.273 275.95 393.056 278.519 364.033C281.128 334.553 271.834 305.867 243.891 275.322L236.512 282.072ZM235.818 449.19C218.494 481.008 204.404 510.228 201.851 539.223C199.257 568.678 208.584 597.303 236.51 627.842L243.89 621.094C217.524 592.262 209.504 566.312 211.812 540.1C214.161 513.43 227.221 485.891 244.601 453.972L235.818 449.19ZM215.064 282.072C241.436 310.899 249.432 336.907 247.109 363.152C244.745 389.854 231.681 417.393 214.368 449.19L223.151 453.972C240.411 422.273 254.501 393.056 257.07 364.033C259.68 334.553 250.386 305.867 222.442 275.322L215.064 282.072ZM214.368 449.19C197.045 481.008 182.955 510.228 180.402 539.223C177.808 568.678 187.135 597.303 215.063 627.843L222.443 621.094C196.076 592.262 188.055 566.312 190.363 540.1C192.711 513.43 205.772 485.891 223.151 453.972L214.368 449.19ZM236.512 282.072C262.885 310.899 270.881 336.907 268.558 363.152C266.194 389.854 253.13 417.393 235.818 449.19L244.601 453.972C261.86 422.273 275.95 393.056 278.519 364.033C281.128 334.553 271.834 305.867 243.891 275.322L236.512 282.072ZM235.818 449.19C218.494 481.008 204.404 510.228 201.851 539.223C199.257 568.678 208.584 597.303 236.51 627.842L243.89 621.094C217.524 592.262 209.504 566.312 211.812 540.1C214.161 513.43 227.221 485.891 244.601 453.972L235.818 449.19ZM257.959 282.072C284.333 310.899 292.328 336.907 290.005 363.152C287.642 389.854 274.577 417.393 257.265 449.19L266.048 453.972C283.307 422.273 297.397 393.056 299.966 364.033C302.576 334.553 293.282 305.867 265.337 275.322L257.959 282.072ZM257.265 449.19C239.942 481.008 225.851 510.228 223.298 539.223C220.704 568.678 230.03 597.303 257.959 627.843L265.338 621.094C238.971 592.262 230.951 566.312 233.259 540.1C235.608 513.43 248.669 485.891 266.048 453.972L257.265 449.19ZM236.512 282.072C262.885 310.899 270.881 336.907 268.558 363.152C266.194 389.854 253.13 417.393 235.818 449.19L244.601 453.972C261.86 422.273 275.95 393.056 278.519 364.033C281.128 334.553 271.834 305.867 243.891 275.322L236.512 282.072ZM235.818 449.19C218.494 481.008 204.404 510.228 201.851 539.223C199.257 568.678 208.584 597.303 236.51 627.842L243.89 621.094C217.524 592.262 209.504 566.312 211.812 540.1C214.161 513.43 227.221 485.891 244.601 453.972L235.818 449.19ZM257.959 282.072C284.333 310.899 292.328 336.907 290.005 363.152C287.642 389.854 274.577 417.393 257.265 449.19L266.048 453.972C283.307 422.273 297.397 393.056 299.966 364.033C302.576 334.553 293.282 305.867 265.337 275.322L257.959 282.072ZM257.265 449.19C239.942 481.008 225.851 510.228 223.298 539.223C220.704 568.678 230.03 597.303 257.959 627.843L265.338 621.094C238.971 592.262 230.951 566.312 233.259 540.1C235.608 513.43 248.669 485.891 266.048 453.972L257.265 449.19ZM279.411 282.072C305.783 310.899 313.778 336.907 311.455 363.152C309.091 389.854 296.027 417.393 278.715 449.19L287.498 453.972C304.757 422.273 318.847 393.056 321.416 364.033C324.025 334.553 314.732 305.867 286.789 275.322L279.411 282.072ZM278.715 449.19C261.392 481.008 247.302 510.228 244.748 539.223C242.155 568.678 251.481 597.303 279.409 627.843L286.788 621.094C260.422 592.262 252.402 566.312 254.71 540.1C257.058 513.43 270.119 485.891 287.498 453.972L278.715 449.19ZM257.959 282.072C284.333 310.899 292.328 336.907 290.005 363.152C287.642 389.854 274.577 417.393 257.265 449.19L266.048 453.972C283.307 422.273 297.397 393.056 299.966 364.033C302.576 334.553 293.282 305.867 265.337 275.322L257.959 282.072ZM257.265 449.19C239.942 481.008 225.851 510.228 223.298 539.223C220.704 568.678 230.03 597.303 257.959 627.843L265.338 621.094C238.971 592.262 230.951 566.312 233.259 540.1C235.608 513.43 248.669 485.891 266.048 453.972L257.265 449.19ZM279.411 282.072C305.783 310.899 313.778 336.907 311.455 363.152C309.091 389.854 296.027 417.393 278.715 449.19L287.498 453.972C304.757 422.273 318.847 393.056 321.416 364.033C324.025 334.553 314.732 305.867 286.789 275.322L279.411 282.072ZM278.715 449.19C261.392 481.008 247.302 510.228 244.748 539.223C242.155 568.678 251.481 597.303 279.409 627.843L286.788 621.094C260.422 592.262 252.402 566.312 254.71 540.1C257.058 513.43 270.119 485.891 287.498 453.972L278.715 449.19ZM300.858 282.072C327.231 310.899 335.226 336.907 332.903 363.152C330.539 389.854 317.474 417.393 300.162 449.19L308.945 453.972C326.203 422.273 340.294 393.056 342.864 364.033C345.474 334.553 336.181 305.867 308.236 275.322L300.858 282.072ZM300.162 449.19C282.838 481.008 268.748 510.228 266.195 539.224C263.601 568.679 272.929 597.304 300.857 627.843L308.237 621.094C281.87 592.262 273.848 566.312 276.156 540.101C278.504 513.43 291.565 485.891 308.945 453.972L300.162 449.19ZM279.411 282.072C305.783 310.899 313.778 336.907 311.455 363.152C309.091 389.854 296.027 417.393 278.715 449.19L287.498 453.972C304.757 422.273 318.847 393.056 321.416 364.033C324.025 334.553 314.732 305.867 286.789 275.322L279.411 282.072ZM278.715 449.19C261.392 481.008 247.302 510.228 244.748 539.223C242.155 568.678 251.481 597.303 279.409 627.843L286.788 621.094C260.422 592.262 252.402 566.312 254.71 540.1C257.058 513.43 270.119 485.891 287.498 453.972L278.715 449.19ZM300.858 282.072C327.231 310.899 335.226 336.907 332.903 363.152C330.539 389.854 317.474 417.393 300.162 449.19L308.945 453.972C326.203 422.273 340.294 393.056 342.864 364.033C345.474 334.553 336.181 305.867 308.236 275.322L300.858 282.072ZM300.162 449.19C282.838 481.008 268.748 510.228 266.195 539.224C263.601 568.679 272.929 597.304 300.857 627.843L308.237 621.094C281.87 592.262 273.848 566.312 276.156 540.101C278.504 513.43 291.565 485.891 308.945 453.972L300.162 449.19ZM322.306 282.072C348.679 310.899 356.674 336.907 354.35 363.152C351.986 389.854 338.921 417.393 321.609 449.19L330.391 453.972C347.65 422.273 361.741 393.056 364.311 364.034C366.921 334.553 357.628 305.867 329.684 275.322L322.306 282.072ZM321.609 449.19C304.285 481.009 290.195 510.229 287.642 539.225C285.049 568.679 294.377 597.304 322.306 627.843L329.685 621.094C303.318 592.262 295.296 566.313 297.604 540.101C299.952 513.431 313.012 485.892 330.391 453.972L321.609 449.19ZM300.858 282.072C327.231 310.899 335.226 336.907 332.903 363.152C330.539 389.854 317.474 417.393 300.162 449.19L308.945 453.972C326.203 422.273 340.294 393.056 342.864 364.033C345.474 334.553 336.181 305.867 308.236 275.322L300.858 282.072ZM300.162 449.19C282.838 481.008 268.748 510.228 266.195 539.224C263.601 568.679 272.929 597.304 300.857 627.843L308.237 621.094C281.87 592.262 273.848 566.312 276.156 540.101C278.504 513.43 291.565 485.891 308.945 453.972L300.162 449.19ZM322.306 282.072C348.679 310.899 356.674 336.907 354.35 363.152C351.986 389.854 338.921 417.393 321.609 449.19L330.391 453.972C347.65 422.273 361.741 393.056 364.311 364.034C366.921 334.553 357.628 305.867 329.684 275.322L322.306 282.072ZM321.609 449.19C304.285 481.009 290.195 510.229 287.642 539.225C285.049 568.679 294.377 597.304 322.306 627.843L329.685 621.094C303.318 592.262 295.296 566.313 297.604 540.101C299.952 513.431 313.012 485.892 330.391 453.972L321.609 449.19ZM343.756 282.072C370.128 310.899 378.123 336.907 375.799 363.152C373.435 389.854 360.37 417.393 343.057 449.19L351.84 453.972C369.1 422.273 383.191 393.056 385.76 364.034C388.37 334.553 379.078 305.867 351.135 275.322L343.756 282.072ZM343.057 449.19C325.733 481.009 311.643 510.229 309.091 539.225C306.498 568.68 315.827 597.305 343.756 627.844L351.135 621.096C324.767 592.263 316.745 566.313 319.052 540.102C321.4 513.431 334.46 485.892 351.84 453.972L343.057 449.19ZM322.306 282.072C348.679 310.899 356.674 336.907 354.35 363.152C351.986 389.854 338.921 417.393 321.609 449.19L330.391 453.972C347.65 422.273 361.741 393.056 364.311 364.034C366.921 334.553 357.628 305.867 329.684 275.322L322.306 282.072ZM321.609 449.19C304.285 481.009 290.195 510.229 287.642 539.225C285.049 568.679 294.377 597.304 322.306 627.843L329.685 621.094C303.318 592.262 295.296 566.313 297.604 540.101C299.952 513.431 313.012 485.892 330.391 453.972L321.609 449.19ZM343.756 282.072C370.128 310.899 378.123 336.907 375.799 363.152C373.435 389.854 360.37 417.393 343.057 449.19L351.84 453.972C369.1 422.273 383.191 393.056 385.76 364.034C388.37 334.553 379.078 305.867 351.135 275.322L343.756 282.072ZM343.057 449.19C325.733 481.009 311.643 510.229 309.091 539.225C306.498 568.68 315.827 597.305 343.756 627.844L351.135 621.096C324.767 592.263 316.745 566.313 319.052 540.102C321.4 513.431 334.46 485.892 351.84 453.972L343.057 449.19ZM365.205 282.07C391.577 310.898 399.572 336.907 397.247 363.152C394.883 389.855 381.817 417.395 364.504 449.192L373.287 453.974C390.546 422.275 404.638 393.058 407.208 364.034C409.819 334.554 400.527 305.866 372.583 275.32L365.205 282.07ZM364.504 449.192C347.18 481.011 333.09 510.23 330.538 539.226C327.946 568.68 337.274 597.305 365.204 627.844L372.583 621.096C346.215 592.263 338.193 566.313 340.5 540.102C342.847 513.432 355.907 485.894 373.287 453.974L364.504 449.192Z" fill="#D98F06"/>
</g>
<path fill-rule="evenodd" clip-rule="evenodd" d="M203.793 508.28C221.826 508.28 236.445 494.098 236.445 476.603C236.445 459.109 221.826 444.928 203.793 444.928C185.759 444.928 171.14 459.109 171.14 476.603C171.14 494.098 185.759 508.28 203.793 508.28Z" fill="#8B2E13"/>
<path fill-rule="evenodd" clip-rule="evenodd" d="M236.444 439.709C254.479 439.709 269.096 425.526 269.096 408.032C269.096 390.537 254.479 376.356 236.444 376.356C218.41 376.356 203.793 390.537 203.793 408.032C203.793 425.526 218.41 439.709 236.444 439.709Z" fill="#8B2E13"/>
<path fill-rule="evenodd" clip-rule="evenodd" d="M275.986 503.824C294.02 503.824 308.637 489.644 308.637 472.147C308.637 454.653 294.02 440.472 275.986 440.472C257.951 440.472 243.334 454.653 243.334 472.147C243.334 489.644 257.951 503.824 275.986 503.824Z" fill="#8B2E13"/>
<path d="M324.458 638.357C333.867 645.176 336.001 658.258 329.2 667.494C322.526 676.554 309.105 678.521 299.807 671.802C290.691 665.22 288.591 651.586 295.294 642.539C302.275 633.121 314.763 631.336 324.458 638.357Z" fill="#F7B192"/>
<path d="M575.849 701.003C581.943 705.419 583.326 713.892 578.921 719.873C574.599 725.741 565.907 727.015 559.885 722.663C553.981 718.4 552.621 709.571 556.962 703.711C561.483 697.612 569.571 696.456 575.849 701.003Z" fill="#81341D"/>
</svg>
