<svg width="349" height="326" viewBox="0 0 349 326" fill="none" xmlns="http://www.w3.org/2000/svg">
<rect width="349" height="326" fill="white"/>
<rect x="1" y="58" width="348" height="222" rx="30" fill="white"/>
<rect x="1" y="58" width="348" height="222" rx="30" fill="#FFD2BF"/>
<path d="M177.153 299.173C102.974 298.957 43.8779 240.404 44.0002 167.245C44.1225 94.5257 104.427 35.4712 178.023 36.0036C251.997 36.5415 311.156 95.4924 310.96 168.472C310.763 240.768 250.749 299.391 177.153 299.173Z" fill="#890B10"/>
<path d="M127.281 228.659C117.13 219.146 107.749 209.093 103.27 195.597C100.213 192.596 98.5778 188.912 97.7987 184.776C95.72 173.754 95.9531 162.717 97.4318 151.653C98.066 146.921 100.585 143.133 103.403 139.459C107.967 126.403 116.655 116.285 126.971 107.328C136.196 94.0332 166.498 84.1791 180.716 89.8472C195.139 90.3011 208.219 95.011 220.569 102.052C236.423 107.311 253.769 131.065 253.45 147.078C257.596 161.039 257.147 175.003 253.487 188.971C254.246 193.173 253.135 196.984 251.306 200.761C247.041 209.544 241.413 217.336 234.733 224.478C230.96 228.595 226.07 231.563 220.64 233.029C208.182 241.301 193.933 244.237 179.442 246.453C159.193 248.678 141.508 243.584 127.281 228.659Z" fill="#FFC710"/>
<path d="M103.395 139.448C97.0962 158.144 97.3266 176.858 103.27 195.583C91.1644 190.503 88.2554 179.758 88.0222 168.685C87.772 156.713 90.9512 145.438 103.395 139.448Z" fill="#AC973C"/>
<path d="M180.702 89.836C160.663 89.3232 142.882 95.5381 126.957 107.318C128.735 94.4285 138.047 88.11 149.175 84.6551C160.165 81.2478 171.531 80.3035 180.702 89.836Z" fill="#AB973C"/>
<path d="M127.281 228.659C138.028 235.019 148.563 241.707 161.251 244.069C167.297 245.19 173.644 243.758 179.451 246.445C170.067 255.047 159.093 253.839 148.407 250.39C137.763 246.966 128.9 241.004 127.281 228.659Z" fill="#AC973C"/>
<path d="M253.45 147.077C248.437 127.843 236.494 113.523 220.555 102.039C243.643 100.923 262.106 126.204 253.45 147.077Z" fill="#AB963B"/>
<path d="M220.64 233.029C236.849 222.151 247.797 207.464 253.484 188.97C264.054 205.229 241.257 237.507 220.64 233.029Z" fill="#AB963B"/>
<path d="M214.731 132.527C215.772 129.445 214.885 124.548 218.997 124.329C223.262 124.105 223.311 128.773 223.439 132.001C223.569 135.324 223.368 139.91 219.48 140.196C214.965 140.527 216.028 135.396 214.731 132.527Z" fill="#F7ECC4"/>
<path d="M179.18 121.303C178.734 124.5 179.132 128.918 175.216 129.05C170.579 129.207 170.806 124.287 170.752 121.205C170.704 118.355 170.724 113.724 174.716 113.626C179.479 113.522 178.592 118.246 179.18 121.303Z" fill="#F7EDC6"/>
<path d="M145.111 144.592C144.591 147.738 145.489 152.412 140.846 152.502C136.714 152.577 136.765 147.901 136.731 145.068C136.697 141.986 136.518 137.111 141.019 137.08C144.986 137.055 144.662 141.459 145.111 144.592Z" fill="#F7ECC6"/>
<path d="M119.706 187.446C120.662 184.311 119.632 179.495 124.168 179.385C128.092 179.29 128.391 183.711 128.433 186.746C128.487 190.035 128.402 194.614 124.074 194.768C119.865 194.919 120.824 190.198 119.706 187.446Z" fill="#F7EBC3"/>
<path d="M174.85 156.469C174.432 160.111 175.071 164.765 170.57 164.659C166.703 164.564 166.916 160.095 167.018 157.029C167.123 153.858 166.086 148.971 170.667 148.904C175.143 148.812 174.213 153.712 174.85 156.469Z" fill="#F7EEC8"/>
<path d="M188.195 156.6C187.725 160.139 188.434 164.827 183.855 164.645C179.994 164.488 180.255 160.027 180.358 156.965C180.466 153.796 179.465 148.895 184.054 148.881C188.471 148.867 187.6 153.745 188.195 156.6Z" fill="#F7EEC8"/>
<path d="M241.572 167.542C241.163 170.795 241.899 175.631 237.526 175.606C233.002 175.58 233.897 170.708 233.801 167.497C233.704 164.415 233.516 159.96 237.321 159.82C241.848 159.658 241.214 164.323 241.572 167.542Z" fill="#F7EEC8"/>
<path d="M181.72 177.791C180.21 180.96 181.839 186.281 177.022 186C172.757 185.754 173.132 181.049 173.217 177.746C173.297 174.723 173.103 170.461 177.377 170.576C181.651 170.691 180.281 175.42 181.72 177.791Z" fill="#F8EECA"/>
<path d="M214.962 178.172C214.305 181.383 215.641 186.244 210.611 185.995C206.445 185.787 207.071 181.31 207.142 178.306C207.219 175.154 206.263 170.341 211.276 170.585C215.454 170.786 214.404 175.306 214.962 178.172Z" fill="#F8EEC9"/>
<path d="M161.536 195.877C161.109 199.018 161.999 203.526 157.774 203.582C152.908 203.647 153.827 198.869 153.793 195.695C153.747 192.691 153.156 188.189 157.393 188.13C162.238 188.068 161.007 192.865 161.536 195.877Z" fill="#F8EEC9"/>
<path d="M203.124 213.702C202.669 216.751 203.553 221.267 199.245 221.169C194.547 221.054 195.392 216.364 195.358 213.145C195.326 210.063 195.255 205.625 199.211 205.7C203.957 205.79 202.583 210.637 203.124 213.702Z" fill="#F8EEC9"/>
</svg>
