<svg width="349" height="326" viewBox="0 0 349 326" fill="none" xmlns="http://www.w3.org/2000/svg">
<rect width="349" height="326" fill="white"/>
<rect y="104" width="348" height="222" rx="21" fill="#FFE386"/>
<path d="M43.0691 159.604C41.3269 90.7848 100.312 29.4269 175.32 30.004C248.756 30.5663 305.914 88.2203 306.581 158.935C307.282 233.336 244.704 294.301 166.126 290.088C101.948 286.661 40.6536 230.468 43.0691 159.604Z" fill="#AB972F"/>
<path d="M89.8039 129.913C82.0621 89.7794 107.863 50.3299 148.315 41.9878C174.988 36.4898 198.833 43.1064 218.695 62.0725C221.134 64.405 223.68 66.6303 226.177 68.9152C226.014 74.8653 222.306 75.2848 217.653 74.2287C208.051 64.4109 197.172 56.6757 183.642 52.6832C154.504 44.0822 123.607 56.3365 106.948 83.4454C92.2587 107.365 96.5192 140.305 116.952 160.797C137.759 181.656 165.61 186.948 192.89 175.262C195.523 174.135 198.099 172.391 201.2 173.891C202.746 176.292 201.124 178.103 199.739 179.606C193.66 186.187 191.686 194.779 187.981 202.514C185.849 206.956 186.695 211.915 186.015 216.622C165.691 245.382 116.33 243.992 97.6635 214.274C86.8872 197.073 84.4354 179.374 93.08 160.628C94.1006 158.411 96.0783 156.165 94.3089 152.768C89.2514 159.015 86.9143 165.998 85.6281 173.23C81.4945 196.477 92.2467 220.016 112.281 232.28C132.571 244.698 157.874 243.653 177.697 229.563C180.45 227.612 182.941 225.136 186.737 225.324C190.789 226.791 192.172 229.772 191.716 233.809C183.998 243.668 172.95 248.351 161.377 251.445C115.626 263.676 70.2622 228.29 71.5877 181.584C71.9138 170.121 74.7309 159.131 80.8121 149.26C84.5954 143.117 88.6807 137.211 89.8039 129.913Z" fill="#D78E28"/>
<path d="M190.719 233.255L186.655 225.722C182.89 223.119 183.527 219.668 184.747 216.107C182.655 201.434 190.212 189.926 197.586 178.401C198.606 176.803 200.043 175.461 201.287 174.004C203.03 168.146 208.534 166.45 213.063 163.683C220.612 160.619 227.807 156.445 236.313 156.245C237.784 156.016 239.276 155.936 240.764 156.007C244.767 155.087 248.934 155.099 252.932 156.043C255.539 156.166 258.106 156.73 260.52 157.709C264.862 159.033 268.31 161.711 271.523 164.745C277.561 173.563 276.529 182.331 271.203 191.003C266.169 199.203 258.521 204.793 250.864 210.297C247.15 212.974 245.401 215.634 248.228 219.817C249.472 222.37 250.731 224.913 251.754 227.567C252.603 230.036 253.309 232.512 251.664 234.948C253.651 244.968 254.288 255.161 244.677 261.652C235.374 267.939 225.561 264.824 216.527 259.835C207.492 254.845 200.246 247.934 194.485 239.491C191.109 238.631 190.239 236.343 190.719 233.255Z" fill="#F8EFCA"/>
<path d="M217.593 72.9464C221.488 73.7259 224.537 72.7798 226.174 68.9033C230.374 63.6464 234.954 63.6077 238.553 69.0521C241.186 73.0238 244.375 73.3689 248.496 73.1904C256.419 72.8483 257.826 74.425 256.522 82.5678C255.991 85.8671 256.881 88.0776 259.276 90.1483C266.849 96.6934 266.737 98.5082 258.557 104.783C258.294 108.094 258.763 111.381 258.938 114.69C258.66 117.909 257.174 120.375 254.306 121.993C250.646 124.159 246.048 121.726 242.485 124.359C239.043 127.081 236.065 130.755 230.884 130.011C227.714 129.714 225.676 127.631 223.656 125.549C221.636 123.567 219.154 122.871 216.355 123.008C213.269 123.112 210.361 122.648 207.945 120.55C207.604 120.22 207.133 119.89 207.04 119.47C205.53 112.074 205.08 104.399 198.827 98.645C197.19 97.1397 198.25 94.1319 199.648 92.0344C201.611 89.3569 205.249 88.0895 206.173 84.5194C206.55 80.6697 204.361 76.3261 208.395 73.1844C211.43 71.0602 214.485 70.7389 217.593 72.9464Z" fill="#F5B094"/>
<path d="M190.719 233.255C191.965 235.326 193.214 237.397 194.464 239.47C169.855 260.465 137.68 264.981 109.436 251.409C81.3192 237.893 64.4888 209.669 66.6628 177.987C67.9521 159.218 75.1505 142.691 89.8068 129.913C92.0503 135.316 90.3594 139.433 86.878 144.155C66.533 171.743 70.573 210.121 95.8034 233.184C121.514 256.687 160.193 257.797 187.202 235.808C188.319 234.894 189.542 234.103 190.719 233.255Z" fill="#010100"/>
<path d="M257.313 113.136C255.475 110.018 254.994 107.103 258.575 104.782C306.47 134.036 305.208 205.935 256.308 233.008C254.849 233.817 253.204 234.299 251.646 234.936C251.058 232.574 250.468 230.209 249.876 227.84C250.61 224.981 253.089 223.747 255.257 222.212C285.207 200.981 292.786 163.549 273.434 132.626C270.846 128.488 267.607 124.915 264.074 121.577C261.423 119.06 258.889 116.474 257.313 113.136Z" fill="#010100"/>
<path d="M217.593 72.9462C214.618 73.092 211.536 72.6309 208.836 74.4338C205.309 74.4695 203.145 71.896 200.599 70.1497C172.63 50.9485 139.329 54.9232 118.522 81.455C93.4424 113.434 109.744 161.142 150.495 171.109C182.301 178.886 210.053 162.889 220.82 132.168C221.829 129.297 221.998 125.92 225.048 124.061C226.938 125.775 228.016 128.634 231.301 128.396C233.68 130.008 233.985 132.344 233.239 134.771C229.456 147.067 224.483 158.634 212.598 165.688L201.257 174.019C182.637 184.003 163.173 186.621 142.765 180.115C113.099 170.645 92.905 139.996 96.1267 109.447C99.5598 76.918 125.246 51.484 157.282 48.3186C179.068 46.1586 197.61 52.5997 213.444 67.2103C215.177 68.8109 217.155 70.3698 217.593 72.9462Z" fill="#010000"/>
<path d="M184.747 216.113C185.381 219.32 186.016 222.527 186.652 225.734C175.441 235.552 162.732 241.782 147.521 243.231C125.584 245.313 101.625 233.133 90.5558 213.584C78.4539 192.22 79.8308 165.938 93.9859 148.453C94.2878 148.099 94.783 147.915 95.0638 147.73C99.125 151.744 98.4909 155.576 95.9485 160.523C83.8315 184.086 91.0601 210.642 113.482 226.719C132.598 240.422 161.917 237.688 179.961 220.528C181.534 219.031 183.15 217.579 184.747 216.113Z" fill="#010100"/>
<path d="M142.71 226.674C112.878 226.555 91.9205 198.114 101.1 170.068C101.915 167.581 102.386 162.966 105.46 163.847C109.18 164.909 109.273 168.711 108.026 172.894C103.917 186.71 107.142 199.226 117.595 209.321C136.548 227.623 168.584 220.138 177.609 195.517C178.023 194.392 178.113 193.136 178.575 192.045C179.85 189.04 182.803 188.299 185.284 189.04C187.93 189.849 185.919 192.363 185.586 193.999C181.706 212.751 163.267 226.758 142.71 226.674Z" fill="#020100"/>
<path d="M169.496 191.717C166.041 205.828 150.944 214.307 136.061 210.588C121.456 206.938 111.652 191.783 115.025 178.124C115.327 176.934 115.674 175.051 116.677 175.298C118.531 175.789 120.188 176.827 121.426 178.273C122.148 179.166 121.68 181.004 121.695 182.438C121.783 192.979 126.828 200.312 136.149 203.454C145.31 206.539 154.468 203.722 160.513 195.344C162.956 191.929 165.356 190.23 169.496 191.717Z" fill="#030201"/>
<path d="M128.782 182.28C137.149 186.419 145.811 189.42 155.051 190.575C151.977 197.102 146.128 199.798 139.25 197.92C131.584 195.817 127.834 190.349 128.782 182.28Z" fill="#070401"/>
<path d="M257.313 113.137C285.919 130.571 295.101 173.275 276.538 203.046C269.934 213.632 261.54 222.474 249.876 227.832L246.579 220.647C247.038 218.038 248.964 216.556 250.966 215.149C283.652 192.19 281.925 150.057 258.213 127.283C256.329 125.474 254.191 123.686 254.215 120.696C256.102 118.531 257.425 116.109 257.313 113.137Z" fill="#D68D27"/>
<path d="M211.644 206.357C202.495 206.393 198.301 201.535 199.778 192.541C201.514 181.873 217.266 170.303 228.091 171.746C236.805 172.909 240.57 179.481 237.551 188.236C234.151 198.057 222.351 206.316 211.644 206.357Z" fill="#E4B735"/>
<path d="M212.628 165.676C220.497 156.531 228.028 147.201 231.089 135.209C231.693 132.894 232.931 130.717 231.322 128.381C236.636 129.253 237.853 123.948 241.286 121.988C244.665 121.393 247.539 122.88 250.009 124.68C262.292 133.65 269.195 145.863 271.598 160.622C271.9 162.487 271.981 164.489 269.922 165.679L260.091 159.527C255.649 154.089 254.1 146.931 249.115 141.775C246.851 139.436 244.888 136.839 240.999 134.287C242.433 140.65 247.147 143.191 249.272 147.377C250.969 150.718 254.227 153.529 252.57 157.876C248.97 157.653 245.374 156.918 241.778 157.876C239.408 156.257 239.432 152.646 236.406 151.485C234.571 153.72 238.013 156.067 236.105 158.191C227.789 159.197 220.416 163.07 212.628 165.676Z" fill="#D68E28"/>
<path d="M269.922 165.694C268.389 146.029 259.086 131.308 241.286 121.988C245.284 118.516 250.07 122.725 254.215 120.696C288.456 146.636 285.382 199.167 246.576 220.659C241.443 215.958 242.086 212.876 248.34 209.154C256.16 204.495 263.343 198.652 268.657 191.054C274.358 182.875 275.533 174.435 269.922 165.694Z" fill="#020201"/>
<path d="M191.021 205.507C201.106 214.28 211.152 216.857 222.267 215.325C225.156 214.923 226.092 216.217 226.871 218.57C228.535 223.577 227.777 228.04 224.235 231.958C220.612 235.972 215.902 235.826 211.448 234.207C198.957 229.641 193.274 219.981 191.021 205.507Z" fill="#E4B836"/>
<path d="M252.57 157.867C250.178 152.042 247.322 146.33 242.439 142.28C238.602 139.097 237.581 136.143 240.643 131.392C250.818 138.368 257.805 147.299 260.091 159.53L252.57 157.867Z" fill="#050401"/>
<path d="M236.099 158.173C235.124 156.835 234.175 155.478 233.17 154.163C231.177 151.56 233.107 149.403 234.589 147.975C236.836 145.818 237.95 148.841 238.783 150.028C240.389 152.318 243.868 154.145 241.769 157.861L236.099 158.173Z" fill="#17120B"/>
<path d="M225.078 124.049C220.026 154.359 195.43 175.432 164.94 175.572C135.745 175.703 110.982 155.175 105.176 126.025C97.4613 87.2923 132.704 51.0142 172.413 56.533C186.728 58.5233 198.872 64.173 208.851 74.4251C206.004 78.2421 209.603 82.2555 208.486 86.129C204.935 86.4474 203.486 83.508 201.514 81.5742C186.115 66.4579 167.844 62.4653 147.702 69.3764C126.807 76.5166 115.847 92.4838 114.714 113.643C113.205 141.959 135.548 164.263 162.029 164.793C188.449 165.32 205.892 152.756 213.725 127.866C214.528 125.314 215.325 122.809 217.405 120.955C220.585 120.488 223.631 120.384 225.078 124.049Z" fill="#D68E28"/>
<path d="M217.405 120.94C213.64 150.617 190.037 169.342 159.109 167.191C132.94 165.373 111.523 141.245 112.199 114.348C112.743 92.7603 127.447 73.1753 148.209 66.3832C170.462 59.1032 192.712 66.3832 208.486 86.1318C207.393 89.4818 204.259 90.5022 201.541 92.0225C198.172 91.8232 196.668 89.1248 194.684 87.063C182.775 74.6867 161.039 71.2445 145.984 79.3516C128.842 88.5892 120.004 107.383 124.594 124.906C129.476 143.599 144.885 155.957 163.563 156.144C183.666 156.362 198.15 146.327 204.775 127.694C205.799 124.823 205.935 121.446 208.927 119.512C211.536 121.208 214.47 121.08 217.405 120.94Z" fill="#010000"/>
<path d="M208.915 119.524C206.158 142.432 187.939 158.742 165.021 158.795C154.293 158.816 143.923 154.99 135.846 148.033C127.77 141.075 122.537 131.461 121.125 120.982C118.323 100.433 132.928 79.3307 153.686 73.925C172.156 69.1172 189.334 75.6089 201.553 92.0194C199.029 95.8186 199.319 99.3917 203.314 101.775C208.145 104.667 210.041 108.106 207.568 113.485C206.587 115.618 208.09 117.584 208.915 119.524Z" fill="#D68E28"/>
<path d="M236.413 89.7168C230.552 91.847 224.44 90.8444 223.127 97.5592C221.959 103.477 224.905 108.864 230.63 110.569C237.225 112.539 243.792 109.947 246.084 104.476C250.704 93.4446 242.24 81.5681 230.223 82.535C225.473 82.9128 220.79 84.1058 215.781 84.9775C221.032 78.5662 236.588 77.8373 243.315 83.3561C250.734 89.452 252.319 102.825 246.404 109.421C242.388 113.901 234.193 115.371 228.2 112.625C222.206 109.879 219.443 105.271 220.02 98.7611C220.711 90.8622 226.237 87.3338 236.413 89.7168Z" fill="#110C0A"/>
<path d="M165.024 151.506C144.927 151.506 128.489 135.634 128.338 116.085C128.199 96.0833 144.568 79.9197 164.991 79.8899C185.221 79.8602 201.424 95.6073 201.487 115.332C201.553 135.622 185.553 151.494 165.024 151.506Z" fill="#010100"/>
<path d="M136.735 115.573C136.792 100.197 149.655 87.5884 165.145 87.6985C180.635 87.8085 193.585 100.649 193.528 115.816C193.464 130.915 180.242 143.81 164.894 143.738C149.353 143.67 136.672 130.981 136.735 115.573Z" fill="#D68E28"/>
<path d="M164.801 96.1356C176.051 96.0761 185.031 104.611 185.167 115.473C185.294 126.153 176.217 135.197 165.239 135.322C154.203 135.447 145.008 126.694 144.882 115.919C144.764 105.102 153.719 96.198 164.801 96.1356Z" fill="#010100"/>
<path d="M176.06 115.853C175.994 121.631 170.45 126.736 164.532 126.468C161.719 126.323 159.072 125.11 157.147 123.084C155.222 121.057 154.169 118.375 154.208 115.6C154.247 112.824 155.375 110.172 157.357 108.199C159.338 106.226 162.018 105.086 164.834 105.018C170.921 104.911 176.13 109.93 176.06 115.853Z" fill="#D58D27"/>
</svg>
