<svg width="348" height="317" viewBox="0 0 348 317" fill="none" xmlns="http://www.w3.org/2000/svg">
<rect width="348" height="222" rx="21" fill="#81341D"/>
<path d="M134.145 57.083L143.4 54.1306C147.58 55.5832 149.345 58.5734 150.101 62.8307C152.513 76.2785 151.119 89.4936 148.142 102.627C147.548 105.24 146.578 107.74 146.945 110.469C144.561 118.191 139.251 124.932 138.993 133.387C132.505 146.816 127.983 161.191 119.208 173.523C118.158 174.998 117.998 176.648 117.867 178.34C117.963 180.462 116.869 182.094 115.487 183.512C109.583 189.574 106.284 196.642 106.392 205.173C106.421 207.355 106.041 209.574 103.932 210.986C101.296 211.14 99.8917 212.304 98.8259 214.954C91.933 231.933 84.4467 248.651 82.3246 267.111C81.964 270.223 81.7789 274.185 77.4549 275.374C73.3575 271.887 69.3367 268.334 67.1571 263.262C64.9616 256.172 66.2828 249.308 68.4846 242.482C75.103 221.963 84.1882 202.525 94.17 183.389C107.174 158.462 121.052 133.877 128.424 106.466C132.036 92.9926 133.174 78.9911 131.784 65.1228C131.465 61.9031 132.026 59.3846 134.145 57.083Z" fill="#D68E38"/>
<path d="M113.384 65.7937L123.937 59.9517C128.047 62.3916 128.749 66.2402 128.918 70.5981C129.84 94.1799 124.013 116.375 115.066 138.011C106.009 159.917 94.1286 180.439 83.5053 201.587C76.2582 216.001 69.6526 230.647 64.5117 245.921C63.5544 248.751 63.4395 252.43 59.3453 253.213C55.4234 248.437 52.8513 242.981 51.0483 237.139C49.7719 225.191 56.3328 215.554 60.9887 205.505C72.3906 180.886 86.7092 157.665 97.1378 132.559C104.599 114.602 110.572 96.3715 109.998 76.6445C109.886 72.6733 110.301 68.8216 113.384 65.7937Z" fill="#D68F38"/>
<path d="M211.83 57.0117L223.299 60.0365C232.802 72.2613 227.913 85.7407 226.225 98.6604C224.087 115.01 217.322 130.103 210.381 144.985C206.163 154.034 202.027 163.139 196.924 171.751C194.946 175.176 191.582 177.377 188.921 180.206C183.86 185.574 180.851 191.717 180.736 199.125C177.174 210.485 172.311 221.396 168.188 232.552C159.374 256.351 155.248 280.586 161.774 305.718C162.569 308.787 163.552 311.931 160.944 314.723L150.733 313.349C149.619 312.721 148.461 312.167 147.593 311.192C142.873 305.973 141.906 299.364 141.491 292.905C140.244 273.449 140.965 254.181 149.788 236.102C150.107 235.473 150.13 234.693 150.238 233.979C150.828 231.486 152.718 229.977 154.559 228.379C163.156 220.937 167.537 211.778 166.098 200.314C170.607 188.347 175.876 176.732 183.486 166.315C184.999 164.243 185.43 161.951 186.014 159.63C191.48 152.644 198.865 146.739 199.369 136.91C200.186 127.396 203.836 118.532 205.834 109.288C208.894 95.2332 212.009 81.2853 209.871 66.7557C209.363 63.4323 209.395 59.9044 211.83 57.0117Z" fill="#F8EFCC"/>
<path d="M235.444 300.411C232.18 302.879 228.468 304.473 224.62 305.807C219.591 303.835 219.262 299.351 218.681 295.006C216.802 280.917 218.394 267.022 220.87 253.143C222.498 244.025 226.014 235.573 229.528 227.106C229.464 224.757 230.948 223.125 232.285 221.446C237.627 214.667 240.869 207.077 241.466 198.455C254.632 172.767 269.229 147.754 279.303 120.597C280.608 117.07 281.183 112.737 286.448 112.52C288.768 116.975 292.368 120.78 293.638 125.811C294.831 133.244 291.468 139.57 288.717 146.104C279.871 167.117 267.655 186.454 257.827 206.976C247.87 227.791 239.156 249.006 236.65 272.204C236.098 277.335 235.594 282.482 236.402 287.52C237.123 291.994 236.89 296.188 235.444 300.411Z" fill="#D68E38"/>
<path d="M59.3452 253.222C63.9245 231.093 74.3116 211.221 84.6062 191.39C96.2761 168.918 108.54 146.742 116.961 122.799C122.97 105.697 126.164 88.1365 125.351 69.9753C125.201 66.6141 124.425 63.2812 123.937 59.9357L134.148 57.021C140.32 88.9477 130.539 117.89 117.213 146.264C105.917 170.327 92.0383 193.098 81.5299 217.544C75.1668 232.344 70.5876 247.575 67.1507 263.214L59.3452 253.222Z" fill="#F8EFCC"/>
<path d="M299.085 137.011C300.511 142.67 303.553 147.89 303.808 153.861C302.852 161.035 300.567 167.975 297.065 174.336C285.65 195.362 274.296 216.469 266.21 239.063C261.738 251.469 259.094 264.442 258.357 277.587C258.162 281.071 256.586 284.161 256.196 287.545L244.488 295.72C238.744 290.667 239.602 283.894 239.89 277.452C241.134 249.323 251.461 223.826 263.52 198.804C272.755 179.625 284.297 161.636 292.604 142.013C293.759 139.268 295.342 136.665 299.085 137.011Z" fill="#D68F38"/>
<path d="M46.1754 225.336L40.8047 206.244C43.6958 195.107 48.907 185.027 54.4053 174.924C68.4143 149.198 81.849 123.145 86.8718 93.9096C87.7813 88.6367 88.5631 83.3952 91.25 78.6505L103.086 70.2334C107.273 72.4092 106.596 76.4339 106.507 79.9271C105.968 100.135 100.657 119.23 92.8552 137.85C83.4094 160.398 71.1523 181.537 60.3312 203.386C57.7304 208.631 54.8744 213.762 52.6884 219.198C51.5013 222.16 50.1228 225.128 46.1754 225.336Z" fill="#D68F38"/>
<path d="M299.085 137.01C286.32 162.428 273.189 187.673 260.913 213.315C248.467 239.318 240.984 266.506 244.488 295.695L235.444 300.411C229.493 282.504 233.169 264.903 237.783 247.537C242.541 229.643 250.548 212.931 259.202 196.578C271.482 173.358 283.736 150.137 293.638 125.81C296.625 128.983 297.084 133.356 299.085 137.01Z" fill="#F8EFCC"/>
<path d="M46.1753 225.336C53.3585 207.728 62.5203 191.098 71.315 174.267C83.7221 150.522 95.8069 126.6 100.807 99.9622C102.679 90.1659 103.444 80.1956 103.089 70.2334C106.705 69.1675 109.423 66.0861 113.384 65.7937C115.937 93.3404 107.869 118.573 96.4898 143.224C83.7253 170.893 67.224 196.789 56.1699 225.289C54.6126 229.304 52.765 233.206 51.0641 237.161L46.1753 225.336Z" fill="#F8EFCC"/>
<path d="M256.196 287.545C252.466 275.339 256.152 263.567 258.717 251.842C262.486 234.621 270.087 218.73 277.928 203.046C286.209 186.482 295.16 170.242 303.808 153.861L306.718 168.082C304.398 183.401 294.876 195.752 288.937 209.586C280.911 228.282 273.329 246.984 270.413 267.22C269.854 271.104 268.951 274.883 266.66 278.197L256.196 287.545Z" fill="#F8EFCC"/>
<path d="M193.74 171.179C201.516 155.207 209.871 139.454 215.813 122.717C223.002 102.449 227.907 81.7476 223.296 60.0366C227.288 63.2752 232.231 64.5832 236.845 66.5704C243.607 84.3574 237.55 101.361 233.016 118.233C228.328 135.64 219.613 151.562 211.935 167.818C206.52 172.368 200.578 174.135 193.74 171.179Z" fill="#D68F38"/>
<path d="M160.944 314.723C149.957 284.539 155.36 255.363 166.455 226.474C170.087 217.041 175.729 208.303 177.117 198.041C178.432 198.279 179.734 199.04 179.887 200.185C180.79 206.954 184.498 212.976 185.168 219.796C177.066 238.941 170.502 258.523 169.758 279.47C169.477 287.479 171.012 295.411 173.032 303.228C173.99 306.897 175.863 310.633 173.83 314.547C171.966 316.519 169.145 314.745 167.148 316.201L160.944 314.723Z" fill="#D68F38"/>
<path d="M91.2562 78.6475C92.3412 95.2428 87.5513 110.753 81.7881 125.972C71.5095 153.119 56.1506 177.88 43.4946 203.905C43.0191 204.88 41.7331 205.477 40.8268 206.238C40.3354 201.469 39.845 196.698 39.3557 191.925C40.1407 189.9 40.3992 187.75 40.9098 185.659C46.7623 166.479 58.4865 149.846 65.2326 131.046C68.7652 121.202 72.7381 111.495 74.3624 101.104C75.0517 96.7017 78.4311 93.4254 79.3023 89.1241L91.2562 78.6475Z" fill="#F8EFCC"/>
<path d="M247.545 73.0225C251.225 76.0535 254.789 79.2386 259.167 81.3201C263.616 96.4124 257.786 110.282 253.264 124.038C248.636 137.958 242.72 151.43 235.591 164.284C233.692 167.743 231.912 171.223 228.165 173.16C221.898 172.997 215.366 173.581 211.198 167.419C229.362 141.338 240.179 112.57 243.649 81.1126C243.997 78.0187 244.035 74.6858 247.545 73.0225Z" fill="#D68F38"/>
<path d="M266.66 278.206C266.14 264.372 269.171 251.056 273.604 238.108C282.003 213.583 293.481 190.416 306.718 168.083C306.871 171.18 306.903 174.299 308.243 177.201C306.881 180.345 307.95 183.665 307.605 186.888C307.583 188.366 306.967 189.718 306.775 191.18C298.402 215.762 287.552 239.41 278.623 263.781C275.241 269.082 272.075 274.55 266.66 278.206Z" fill="#D68F38"/>
<path d="M268.555 90.5137C270.981 95.0603 275.649 97.6574 278.604 101.742C280.028 107.087 279.242 112.24 277.609 117.488C270.588 139.951 259.911 160.816 249.003 181.58C247.376 184.674 245.493 187.555 241.313 187.555C235.98 186.281 234.347 181.986 232.891 177.54C233.44 172.107 235.636 167.246 238.109 162.413C248.933 141.218 259.288 119.865 263.577 96.2551C264.101 93.4252 265.447 91.2023 268.555 90.5137Z" fill="#D68F38"/>
<path d="M247.545 73.0224C247.175 105.899 234.123 134.929 219.54 163.567C217.797 166.991 215.209 166.941 212.309 167.155C211.882 167.396 211.397 167.52 210.906 167.514C210.414 167.507 209.933 167.37 209.513 167.117C211.409 157.54 216.939 149.431 220.803 140.674C229.589 120.758 235.119 100.208 236.475 78.5028C236.727 74.5128 233.791 70.4284 236.842 66.5547L247.545 73.0224Z" fill="#F8EFCC"/>
<path d="M187.948 314.78H183.209C179.297 313.315 177.695 310.167 176.807 306.423C170.626 280.325 173.967 255.03 183.336 230.238C184.236 227.848 185.841 226.049 188.359 225.156C193.564 224.301 197.403 226.247 200.01 230.684C200.923 233.85 200.399 236.941 199.423 240.007C195.632 251.895 192.996 264.022 191.968 276.42C191.196 285.721 193.066 294.817 195.22 303.832C195.948 306.875 197.349 309.966 194.633 312.79C192.964 315.293 189.888 313.183 187.948 314.78Z" fill="#D68F38"/>
<path d="M189.122 226.619C176.779 255.326 172.506 284.564 183.202 314.78C182.766 314.824 182.337 314.924 181.926 315.076C178.93 315.78 175.943 316.088 172.991 314.846C160.204 281.203 166.998 249.566 183.011 218.85C187.948 219.214 190.679 221.283 189.122 226.619Z" fill="#F8EFCC"/>
<path d="M79.2802 89.127C79.1302 103.216 74.7935 116.378 69.7579 129.314C61.9747 149.289 52.462 168.481 41.7462 187.092C37.8945 183.074 40.2048 178.521 40.5878 174.138C40.6559 171.553 40.7207 168.968 40.7824 166.381C47.7614 145.988 55.0085 125.701 65.7785 106.854C69.1356 100.1 73.533 94.1137 79.2802 89.127Z" fill="#D68F38"/>
<path d="M268.556 90.5136C264.142 119.189 251.272 144.739 238.24 170.233C237.142 172.377 236.182 174.591 235.157 176.773C230.109 178.345 227.696 176.556 227.964 171.324C241.24 146.337 253.047 120.812 257.537 92.592C258.137 88.8409 256.385 84.7313 259.167 81.3198L268.556 90.5136Z" fill="#F8EFCC"/>
<path d="M153.423 234.02C143.948 259.567 140.802 285.438 149.274 311.909C147.302 313.013 145.324 312.978 143.342 311.938C141.143 311.881 138.916 311.919 137.142 310.299C130.178 304.731 129.958 296.675 129.419 288.95C128.391 274.222 130.338 259.727 134.024 245.453C134.636 243.091 135.447 240.774 135.517 238.299C135.698 237.454 136.079 236.663 136.631 235.992C142.04 233.781 147.302 230.335 153.423 234.02Z" fill="#D68F38"/>
<path d="M214.842 308.844C211.421 310.344 207.994 311.825 204.142 311.812C200.348 309.787 198.443 306.495 197.856 302.423C194.378 278.342 195.025 254.709 205.834 232.19C210.847 228.549 215.975 228.622 221.202 231.735C223.627 234.957 222.3 238.297 221.183 241.438C217.252 252.502 215.573 263.991 214.115 275.54C213.09 283.64 214.916 291.453 216.349 299.317C216.952 302.662 217.852 306.052 214.842 308.844Z" fill="#D68E38"/>
<path d="M207.496 233.212C205.789 242.959 202.173 252.254 200.9 262.183C198.743 279.014 198.778 295.537 204.142 311.815C201.194 312.412 198.246 313.013 195.3 313.617C194.741 314.098 194.342 313.997 194.074 313.302C192.894 306.445 190.293 299.961 189.23 293.015C186.148 272.814 191.19 253.863 197.374 235.004C197.747 233.866 198.082 232.715 198.433 231.571C202.164 228.313 205.141 229.071 207.496 233.212Z" fill="#F8EFCC"/>
<path d="M241.689 186.196C256.962 160.564 270.007 134.002 277.171 104.914C277.443 103.807 278.129 102.798 278.604 101.742L286.448 112.504C279.045 130.716 271.833 149.009 262.342 166.315C256.388 177.172 250.535 188.083 244.641 198.968C239.57 195.629 237.672 191.576 241.689 186.196Z" fill="#F8EFCC"/>
<path d="M214.842 308.844C206.456 282.709 211.262 257.505 220.475 232.624C222.731 226.443 226.078 224.855 232.237 227.024C227.173 242.915 222.201 258.762 221.646 275.682C221.308 285.929 222.026 295.918 224.62 305.807L214.842 308.844Z" fill="#F8EFCC"/>
<path d="M137.301 237.872V238.384C123.806 255.423 125.638 275.229 126.78 294.912C127.026 299.093 129.78 303.517 125.625 307.306C120.873 305.266 115.969 303.511 111.903 300.197C104.745 292.022 106.797 282.149 107.305 272.842C107.879 262.152 110.132 251.59 113.205 241.261C114.191 237.935 115.404 234.765 118.63 232.847C125.376 232.624 132.374 231.508 137.301 237.872Z" fill="#D68E38"/>
<path d="M100.115 294.248L86.824 284.595C82.4936 269.286 87.8292 254.87 91.1479 240.299C92.4978 234.372 94.9773 228.773 97.4504 223.204C98.7269 220.299 100.099 217.365 103.794 216.67C110.904 217.614 112.8 222.874 114.057 228.675C110.971 241.205 106.28 253.326 104.57 266.239C103.734 272.578 103.954 278.892 103.59 285.209C103.399 288.548 103.928 292.236 100.115 294.248Z" fill="#D68F38"/>
<path d="M211.83 57.0559C216.882 76.6447 213.515 95.8625 208.163 114.684C205.93 122.595 204.462 130.519 203.058 138.527C201.781 138.241 200.447 137.493 200.387 136.383C199.911 128.003 195.833 120.485 194.598 112.301C196.471 96.0543 201.334 80.0342 198.006 63.3885C197.387 60.3039 196.245 56.5622 199.79 53.9902L211.83 57.0559Z" fill="#D68F38"/>
<path d="M125.625 307.306C120.254 286.919 121.655 266.717 126.972 246.528C128.449 240.919 130.645 237.168 137.292 238.384C140.824 240.372 138.418 242.893 137.834 245.154C132.243 266.821 130.175 288.51 137.151 310.3L125.625 307.306Z" fill="#F8EFCC"/>
<path d="M104.302 217.673C96.394 232.766 92.0189 248.82 89.5171 265.579C88.5597 271.912 89.5171 278.527 86.8238 284.605C83.6986 281.515 80.5734 278.423 77.4482 275.329C79.682 249.786 88.9842 226.471 100.881 203.112C101.64 205.97 102.215 208.127 102.795 210.284C106.219 212.165 107.078 214.557 104.302 217.673Z" fill="#F8EFCC"/>
<path d="M100.115 294.248C98.9981 271.452 101.765 249.323 111.779 228.446C116.604 227.531 120.002 228.446 119.492 234.319C112.394 254.282 108.106 274.565 111.903 295.848C112.152 297.254 111.903 298.744 111.903 300.197C107.442 299.232 104.117 296.087 100.115 294.248Z" fill="#F8EFCC"/>
<path d="M199.796 53.9688C204.81 73.7442 203.307 93.1738 196.631 112.333C190.338 113.547 187.925 109.981 186.907 104.683C186.425 100.566 186.269 96.4818 187.013 92.3343C188.886 81.9576 189.007 71.5148 186.942 61.1255C186.279 57.7893 186.346 54.8366 189.463 52.6512C192.965 52.2809 196.506 52.7323 199.796 53.9688V53.9688Z" fill="#F8EFCC"/>
<path d="M278.614 263.783C278.981 252.552 282.912 242.192 286.821 231.857C292.163 217.723 299.11 204.278 305.604 190.645C308.157 190.331 307.685 191.739 307.104 193.208C305.062 216.733 297.754 238.431 284 257.891C282.478 260.07 281.211 262.532 278.614 263.783Z" fill="#F8EECB"/>
<path d="M189.463 52.6387C189.923 55.978 190.124 59.3769 190.883 62.647C194.228 77.0509 190.564 91.0964 188.886 105.246C183.054 107.551 178.719 105.942 175.879 100.416C174.848 93.8634 176.517 87.4302 176.807 80.9215C177.121 73.9135 176.605 66.8934 175.272 60.0026C174.714 57.1036 174.229 54.1889 177.27 52.1671C180.818 51.7175 184.367 51.1924 187.865 52.4815L189.463 52.6387Z" fill="#D68F38"/>
<path d="M143.412 111.117C145.177 98.0787 148.709 85.1973 147.631 71.904C147.136 65.8264 147.551 59.3999 143.396 54.1083L155.053 52.6306C158.273 54.8315 160.051 57.7775 160.539 61.6636C162.243 75.2305 163.21 88.7281 157.865 101.83C154.814 108.608 150.171 111.589 143.412 111.117Z" fill="#F8EFCC"/>
<path d="M155.322 102.492C159.071 85.8457 159.594 69.2186 155.053 52.6167L156.665 52.4658C160.217 51.2521 163.8 51.6546 167.39 52.2457C169.152 53.2393 170.709 54.5788 171.111 56.5314C174.162 71.341 175.432 86.1035 169.244 100.552C165.109 104.699 160.539 105.869 155.322 102.492Z" fill="#D68F38"/>
<path d="M167.221 99.3616C171.258 83.7348 170.712 68.1427 166.841 52.5788C165.99 51.7697 166.154 51.3274 167.333 51.252L176.957 51.3368C178.123 51.2677 178.323 51.667 177.557 52.5348C180.566 66.5926 181.706 80.6975 179.022 94.9817C178.658 96.9154 178.384 98.7548 177.327 100.449C173.501 104.254 170.211 103.176 167.221 99.3616Z" fill="#F8EFCC"/>
<path d="M65.7783 106.854C60.8097 128.065 51.3385 147.446 40.7822 166.381C42.8692 145.201 50.4864 126.059 62.801 108.681C63.4233 107.813 64.7699 107.452 65.7783 106.854Z" fill="#F7EDC8"/>
<path d="M40.5877 174.138C40.9834 178.455 39.691 182.92 41.7461 187.092L39.3336 191.928C39.5601 185.985 37.821 179.892 40.5877 174.138Z" fill="#DEA152"/>
<path d="M172.988 314.84L181.923 315.073C177.136 317.354 172.094 316.062 167.157 316.234C168.862 314.779 170.942 314.888 172.988 314.84Z" fill="#D3A95C"/>
<path d="M306.954 187.354C307.101 183.933 306.089 180.373 308.231 177.201C308.231 180.582 308.223 183.96 308.208 187.335C307.813 188.058 307.395 188.064 306.954 187.354Z" fill="#D6AA5E"/>
<path d="M177.557 52.5541C177.254 52.2082 177.048 51.789 176.957 51.3383C180.64 51.284 184.44 50.1065 187.865 52.4903L177.557 52.5541Z" fill="#DEA75B"/>
<path d="M167.333 51.2522C167.231 51.7212 167.065 52.1742 166.841 52.5989L156.675 52.4776C160.006 50.1864 163.73 51.2522 167.333 51.2522Z" fill="#DEAA60"/>
<path d="M306.954 187.353L308.231 187.334C308.387 189.391 308.298 191.4 307.108 193.208C306.605 192.353 306.105 191.499 305.608 190.645L306.954 187.353Z" fill="#D1AE63"/>
<path d="M143.352 311.951L149.284 311.922L150.729 313.383C148.183 313.339 145.55 313.76 143.352 311.951Z" fill="#D9A75B"/>
<path d="M194.075 313.309C194.506 313.287 194.934 313.398 195.3 313.628C193.031 315.173 190.465 314.857 187.941 314.812C189.751 313.338 191.927 313.386 194.075 313.309Z" fill="#D9A75A"/>
<path d="M167.221 99.3584L177.328 100.434L188.886 105.238L196.631 112.306C202.483 120.151 203.463 129.16 203.064 138.489C201.724 147.94 195.878 154.65 189.077 160.781C183.748 169.315 174.842 168.277 166.58 169C165.745 168.983 164.922 168.808 164.155 168.485C160.281 167.856 156.196 167.856 153.034 165.026C150.257 163.825 147.609 162.445 145.64 160.052C140.853 157.257 139.222 151.98 135.891 148.031C133.201 143.164 134.844 138.24 135.671 133.326C135.773 125.081 139.561 118.086 143.409 111.108L155.322 102.493L167.221 99.3584Z" fill="#8A301E"/>
<path d="M119.491 234.319L111.782 228.445L104.302 217.676L102.789 210.291C100.791 197.012 107.391 186.85 115.142 177.106C118.751 174.339 121.384 169.953 126.841 170.233C131.458 170.469 135.776 166.46 140.582 169.29C142.059 169.79 143.597 169.774 145.129 169.79C150.554 171.264 155.701 173.302 159.61 177.553C163.028 178.719 163.647 182.703 166.631 184.31C171.417 188.79 169.353 194.551 169.621 199.877C171.536 214.63 164.911 225.452 153.419 234.03C148.247 236.136 142.937 237.671 137.298 237.881C131.295 237.023 125.063 237.284 119.491 234.319Z" fill="#89301E"/>
<path d="M126.678 172.623C122.794 174.009 119.635 177.204 115.158 177.106C121.987 162.508 128.824 147.911 135.671 133.313C135.852 138.284 137.662 142.881 139.031 147.578C139.519 158.137 135.134 166.372 126.678 172.623Z" fill="#F8EECB"/>
<path d="M232.237 227.024L220.475 232.624L207.49 233.209L198.434 231.577L189.122 226.619L183.014 218.852C177.835 212.787 177.296 205.458 177.117 198.034C177.701 186.112 184.485 177.911 193.74 171.18C198.778 168.979 204.076 167.737 209.526 167.117L212.306 167.155C217.478 168.727 223.085 168.686 227.942 171.324L235.135 176.773L241.673 186.206C242.778 190.438 244.545 194.516 244.622 198.981C245.181 210.328 238.977 218.793 232.237 227.024Z" fill="#89301E"/>
<path d="M169.624 199.868C168.555 194.774 166.232 190.174 163.861 185.593C162.585 183.077 162.358 180.247 163.692 177.977C166.018 174.05 165.607 169.824 166.12 165.671C174.143 165.733 181.993 165.004 189.077 160.781C183.7 171.138 178.282 181.464 172.981 191.872C171.673 194.441 170.735 197.186 169.624 199.868Z" fill="#D68E38"/>
<path d="M126.678 172.623L139.047 147.582L147.328 157.76C147.759 164.007 145.857 169.11 140.011 172.289C135.514 171.069 131.114 172.858 126.678 172.623Z" fill="#D68E38"/>
<path d="M157.951 179.594C154.16 176.556 149.756 174.676 145.225 173.041C146.22 168.101 147.602 163.46 153.697 162.501L164.25 165.809C166.334 172.723 164.812 176.059 157.951 179.594Z" fill="#D58E38"/>
<path d="M157.951 179.594L164.253 165.809L166.098 165.671L172.825 167.473C169.784 173.616 166.816 179.603 163.848 185.593L157.951 179.594Z" fill="#F6EAC7"/>
<path d="M153.71 162.501C150.656 165.837 151.419 172.157 145.231 173.037L139.998 172.289C141.281 166.961 143.784 161.992 147.315 157.763L153.71 162.501Z" fill="#F6EBC8"/>
</svg>
